<svg width="512" height="512" viewBox="0 0 512 512" fill="none" xmlns="http://www.w3.org/2000/svg">
  <defs>
    <linearGradient id="tile" x1="0" y1="0" x2="0" y2="1"><stop offset="0" stop-color="#0d2136"/><stop offset="1" stop-color="#0a1929"/></linearGradient>
    <linearGradient id="edge" x1="0" y1="0" x2="1" y2="1"><stop offset="0" stop-color="#0078d4"/><stop offset="1" stop-color="#00b4a6"/></linearGradient>
    <radialGradient id="halo" cx="0.5" cy="0.5" r="0.5"><stop offset="0" stop-color="#00b4a6" stop-opacity="0.30"/><stop offset="1" stop-color="#00b4a6" stop-opacity="0"/></radialGradient>
    <radialGradient id="glow" cx="0.5" cy="0.5" r="0.5"><stop offset="0" stop-color="#00e0cf" stop-opacity="0.9"/><stop offset="1" stop-color="#00e0cf" stop-opacity="0"/></radialGradient>
    <linearGradient id="steel" x1="0" y1="0" x2="0" y2="1"><stop offset="0" stop-color="#eaf2fb"/><stop offset="1" stop-color="#c3d3e6"/></linearGradient>
  </defs>
  <rect x="8" y="8" width="496" height="496" rx="104" fill="url(#tile)"/>
  <rect x="8.5" y="8.5" width="495" height="495" rx="103.5" fill="none" stroke="#1e3a56" stroke-width="1"/>
  <circle cx="256" cy="256" r="170" fill="url(#halo)"/>
  <path d="M 156 292 A 100 100 0 0 1 356 292" fill="none" stroke="url(#edge)" stroke-width="13" stroke-linecap="round"/><line x1="176.0" y1="292.0" x2="160.0" y2="292.0" stroke="#3b7fd0" stroke-width="4" stroke-opacity="0.7"/><line x1="199.4" y1="235.4" x2="188.1" y2="224.1" stroke="#3b7fd0" stroke-width="4" stroke-opacity="0.7"/><line x1="256.0" y1="212.0" x2="256.0" y2="196.0" stroke="#3b7fd0" stroke-width="4" stroke-opacity="0.7"/><line x1="312.6" y1="235.4" x2="323.9" y2="224.1" stroke="#3b7fd0" stroke-width="4" stroke-opacity="0.7"/><line x1="336.0" y1="292.0" x2="352.0" y2="292.0" stroke="#3b7fd0" stroke-width="4" stroke-opacity="0.7"/><line x1="256" y1="292" x2="301.6" y2="219.1" stroke="#00e0cf" stroke-width="9" stroke-linecap="round"/><circle cx="301.6" cy="219.1" r="13" fill="url(#glow)"/><circle cx="256" cy="292" r="16" fill="#0078d4"/><circle cx="256" cy="292" r="16" fill="none" stroke="#00e0cf" stroke-width="4"/>
</svg>