<svg width="512" height="512" viewBox="0 0 512 512" fill="none" xmlns="http://www.w3.org/2000/svg">
  <defs>
    <linearGradient id="tile" x1="0" y1="0" x2="0" y2="1"><stop offset="0" stop-color="#0d2136"/><stop offset="1" stop-color="#0a1929"/></linearGradient>
    <linearGradient id="edge" x1="0" y1="0" x2="1" y2="1"><stop offset="0" stop-color="#0078d4"/><stop offset="1" stop-color="#00b4a6"/></linearGradient>
    <radialGradient id="halo" cx="0.5" cy="0.5" r="0.5"><stop offset="0" stop-color="#00b4a6" stop-opacity="0.30"/><stop offset="1" stop-color="#00b4a6" stop-opacity="0"/></radialGradient>
    <radialGradient id="glow" cx="0.5" cy="0.5" r="0.5"><stop offset="0" stop-color="#00e0cf" stop-opacity="0.9"/><stop offset="1" stop-color="#00e0cf" stop-opacity="0"/></radialGradient>
    <linearGradient id="steel" x1="0" y1="0" x2="0" y2="1"><stop offset="0" stop-color="#eaf2fb"/><stop offset="1" stop-color="#c3d3e6"/></linearGradient>
  </defs>
  <rect x="8" y="8" width="496" height="496" rx="104" fill="url(#tile)"/>
  <rect x="8.5" y="8.5" width="495" height="495" rx="103.5" fill="none" stroke="#1e3a56" stroke-width="1"/>
  <circle cx="256" cy="256" r="170" fill="url(#halo)"/>
  <rect x="267.0" y="227.0" width="18" height="18" rx="4" fill="url(#edge)" transform="rotate(0.0 276.0 236.0)"/><rect x="253.9" y="263.0" width="18" height="18" rx="4" fill="url(#edge)" transform="rotate(40.0 262.9 272.0)"/><rect x="220.7" y="282.1" width="18" height="18" rx="4" fill="url(#edge)" transform="rotate(80.0 229.7 291.1)"/><rect x="183.0" y="275.5" width="18" height="18" rx="4" fill="url(#edge)" transform="rotate(120.0 192.0 284.5)"/><rect x="158.4" y="246.2" width="18" height="18" rx="4" fill="url(#edge)" transform="rotate(160.0 167.4 255.2)"/><rect x="158.4" y="207.8" width="18" height="18" rx="4" fill="url(#edge)" transform="rotate(200.0 167.4 216.8)"/><rect x="183.0" y="178.5" width="18" height="18" rx="4" fill="url(#edge)" transform="rotate(240.0 192.0 187.5)"/><rect x="220.7" y="171.9" width="18" height="18" rx="4" fill="url(#edge)" transform="rotate(280.0 229.7 180.9)"/><rect x="253.9" y="191.0" width="18" height="18" rx="4" fill="url(#edge)" transform="rotate(320.0 262.9 200.0)"/><circle cx="220" cy="236" r="50" fill="#0a1f38" stroke="url(#edge)" stroke-width="6"/><circle cx="220" cy="236" r="15" fill="none" stroke="#00e0cf" stroke-width="5"/><rect x="355.0" y="313.0" width="18" height="18" rx="4" fill="url(#edge)" transform="rotate(0.0 364.0 322.0)"/><rect x="343.3" y="341.3" width="18" height="18" rx="4" fill="url(#edge)" transform="rotate(45.0 352.3 350.3)"/><rect x="315.0" y="353.0" width="18" height="18" rx="4" fill="url(#edge)" transform="rotate(90.0 324.0 362.0)"/><rect x="286.7" y="341.3" width="18" height="18" rx="4" fill="url(#edge)" transform="rotate(135.0 295.7 350.3)"/><rect x="275.0" y="313.0" width="18" height="18" rx="4" fill="url(#edge)" transform="rotate(180.0 284.0 322.0)"/><rect x="286.7" y="284.7" width="18" height="18" rx="4" fill="url(#edge)" transform="rotate(225.0 295.7 293.7)"/><rect x="315.0" y="273.0" width="18" height="18" rx="4" fill="url(#edge)" transform="rotate(270.0 324.0 282.0)"/><rect x="343.3" y="284.7" width="18" height="18" rx="4" fill="url(#edge)" transform="rotate(315.0 352.3 293.7)"/><circle cx="324" cy="322" r="34" fill="#0a1f38" stroke="url(#edge)" stroke-width="6"/><circle cx="324" cy="322" r="11" fill="none" stroke="#00e0cf" stroke-width="5"/>
</svg>