<svg width="512" height="512" viewBox="0 0 512 512" fill="none" xmlns="http://www.w3.org/2000/svg">
  <defs>
    <linearGradient id="tile" x1="0" y1="0" x2="0" y2="1"><stop offset="0" stop-color="#0d2136"/><stop offset="1" stop-color="#0a1929"/></linearGradient>
    <linearGradient id="edge" x1="0" y1="0" x2="1" y2="1"><stop offset="0" stop-color="#0078d4"/><stop offset="1" stop-color="#00b4a6"/></linearGradient>
    <radialGradient id="halo" cx="0.5" cy="0.5" r="0.5"><stop offset="0" stop-color="#00b4a6" stop-opacity="0.30"/><stop offset="1" stop-color="#00b4a6" stop-opacity="0"/></radialGradient>
    <radialGradient id="glow" cx="0.5" cy="0.5" r="0.5"><stop offset="0" stop-color="#00e0cf" stop-opacity="0.9"/><stop offset="1" stop-color="#00e0cf" stop-opacity="0"/></radialGradient>
    <linearGradient id="steel" x1="0" y1="0" x2="0" y2="1"><stop offset="0" stop-color="#eaf2fb"/><stop offset="1" stop-color="#c3d3e6"/></linearGradient>
  </defs>
  <rect x="8" y="8" width="496" height="496" rx="104" fill="url(#tile)"/>
  <rect x="8.5" y="8.5" width="495" height="495" rx="103.5" fill="none" stroke="#1e3a56" stroke-width="1"/>
  <circle cx="256" cy="256" r="170" fill="url(#halo)"/>
  
  <path d="M172 344 C 214 300 206 250 262 232 S 340 196 344 166" fill="none" stroke="url(#edge)" stroke-width="7" stroke-dasharray="2 15" stroke-linecap="round"/>
  <circle cx="172" cy="344" r="13" fill="url(#glow)"/><circle cx="172" cy="344" r="8" fill="#00e0cf"/>
  <circle cx="228" cy="290" r="10" fill="#0078d4" stroke="#dbe6f1" stroke-width="3"/>
  <circle cx="286" cy="232" r="10" fill="#0078d4" stroke="#dbe6f1" stroke-width="3"/>
  <line x1="344" y1="166" x2="344" y2="240" stroke="url(#steel)" stroke-width="6" stroke-linecap="round"/>
  <path d="M344 168 L390 182 L344 200 Z" fill="#00e0cf"/>
</svg>